<svg width="20" height="16" viewBox="0 0 20 16" fill="none" xmlns="http://www.w3.org/2000/svg">
<path d="M13.0196 3.10751H7.24706L6.09882 1.7428C6.0602 1.69637 6.00231 1.67033 5.94196 1.67221H1.28471C0.573647 1.67739 0 2.25527 0 2.96633V11.3601C0.000862745 12.0735 0.579059 12.6517 1.29255 12.6526H13.0196C13.7331 12.6517 14.3113 12.0735 14.3122 11.3601V4.40006C14.3113 3.68657 13.7331 3.10837 13.0196 3.10751Z" fill="#0061FF"/>
<path d="M14.7152 1.43539H8.94112L7.79289 0.0706837C7.75426 0.0242523 7.69638 -0.00178689 7.63602 9.54656e-05H2.98034C2.33516 0.00115429 1.78959 0.477782 1.7019 1.11696H5.94818C6.17085 1.11641 6.38226 1.21468 6.52543 1.38519L7.50583 2.55068H13.0196C14.0394 2.55241 14.8657 3.37872 14.8674 4.39853V10.9679C15.514 10.8873 15.9994 10.338 15.9999 9.68637V2.72637C15.9983 2.01653 15.425 1.44057 14.7152 1.43539Z" fill="#0061FF"/>
<rect x="2.3999" y="8.80005" width="4.8" height="1.6" rx="0.8" fill="#0061FF"/>
<circle cx="14.4" cy="9.6" r="5.6" fill="#0061FF"/>
<path d="M14.3999 5.30005C16.7769 5.30005 18.6996 7.22311 18.6997 9.59985C18.6997 11.9769 16.7767 13.8997 14.3999 13.8997C12.023 13.8996 10.1001 11.9766 10.1001 9.59985C10.1002 7.22297 12.0232 5.30015 14.3999 5.30005ZM14.3403 6.6897C13.3049 6.6897 12.5955 7.33417 12.5952 8.03638C12.5952 8.31776 12.7214 8.54888 12.9067 8.69849C13.0784 8.83691 13.2874 8.89663 13.4741 8.89673C13.6459 8.89673 13.7881 8.84402 13.9028 8.76489C13.8069 8.85843 13.6987 8.98374 13.6079 9.15063C13.4826 9.38104 13.4039 9.66454 13.4038 10.0139C13.4038 10.1822 13.4193 10.4398 13.5815 10.6487C13.4166 10.8082 13.3067 11.0236 13.2827 11.261L13.2778 11.3606L13.2827 11.4563C13.3303 11.9348 13.7288 12.3469 14.2583 12.3469C14.8142 12.3468 15.2444 11.887 15.2446 11.3606C15.2446 11.0878 15.131 10.8397 14.9497 10.6604C15.0916 10.4964 15.1245 10.308 15.1245 10.179C15.1245 9.99921 15.1309 9.95987 15.1401 9.93481C15.1421 9.92932 15.1566 9.88451 15.2856 9.78345C15.3781 9.71153 15.5949 9.54025 15.7896 9.29224C15.9828 9.04599 16.186 8.68347 16.186 8.23267C16.186 7.26023 15.3101 6.68975 14.3403 6.6897ZM14.3208 8.4104C14.3223 8.4104 14.3242 8.41039 14.3257 8.4104C14.292 8.44289 14.2511 8.47852 14.1968 8.52075C14.1561 8.55241 14.0951 8.59964 14.0396 8.64478C14.0803 8.59986 14.113 8.55773 14.1333 8.52856C14.1672 8.47982 14.1687 8.47531 14.189 8.44751C14.2115 8.41653 14.2131 8.41995 14.2056 8.42407C14.2109 8.42164 14.2423 8.41044 14.3208 8.4104Z" fill="#0061FF" stroke="white"/>
</svg>
