<svg width="240" height="190" viewBox="0 0 240 190" fill="none" xmlns="http://www.w3.org/2000/svg">
<g filter="url(#filter0_d_6_112)">
<path d="M132.5 88H107.5C103.358 88 100 84.6425 100 80.5V55.5C100 51.3575 103.358 48 107.5 48H132.5C136.642 48 140 51.3575 140 55.5V80.5C140 84.6425 136.642 88 132.5 88Z" fill="white"/>
</g>
<path d="M119.334 77.9999C120.842 77.9999 122.105 76.9248 122.395 75.4999H116.271C116.562 76.9248 117.824 77.9999 119.334 77.9999Z" fill="#051F61"/>
<path d="M125.646 70.0801C125.625 70.0801 125.604 70.0838 125.583 70.0838C121.906 70.0838 118.916 67.0925 118.916 63.4175C118.916 61.9737 119.383 60.6389 120.166 59.5463V58.8337C120.166 58.3726 119.794 58 119.334 58C118.874 58 118.5 58.3726 118.5 58.8337V59.7337C115.677 60.1399 113.5 62.5676 113.5 65.5V67.8237C113.5 69.4725 112.778 71.0289 111.51 72.1013C111.186 72.3787 111 72.7825 111 73.2088C111 74.0127 111.654 74.6676 112.459 74.6676H126.209C127.013 74.6676 127.668 74.0139 127.668 73.2088C127.668 72.7825 127.481 72.3787 127.15 72.0949C126.491 71.5389 125.985 70.8477 125.646 70.0801Z" fill="#051F61"/>
<path d="M125.584 58C122.598 58 120.167 60.4301 120.167 63.4163C120.167 66.4024 122.598 68.8326 125.584 68.8326C128.57 68.8326 131 66.4037 131 63.4163C131 60.4289 128.57 58 125.584 58ZM126.416 65.2913C126.416 65.6361 126.136 65.9163 125.791 65.9163C125.446 65.9163 125.166 65.6361 125.166 65.2913V62.5825H124.75C124.405 62.5825 124.125 62.3024 124.125 61.9575C124.125 61.6124 124.405 61.3325 124.75 61.3325H125.791C126.136 61.3325 126.416 61.6124 126.416 61.9575V65.2913Z" fill="#EB5757"/>
<defs>
<filter id="filter0_d_6_112" x="0" y="-50" width="240" height="240" filterUnits="userSpaceOnUse" color-interpolation-filters="sRGB">
<feFlood flood-opacity="0" result="BackgroundImageFix"/>
<feColorMatrix in="SourceAlpha" type="matrix" values="0 0 0 0 0 0 0 0 0 0 0 0 0 0 0 0 0 0 127 0" result="hardAlpha"/>
<feOffset dy="2"/>
<feGaussianBlur stdDeviation="50"/>
<feComposite in2="hardAlpha" operator="out"/>
<feColorMatrix type="matrix" values="0 0 0 0 0 0 0 0 0 0 0 0 0 0 0 0 0 0 0.1 0"/>
<feBlend mode="normal" in2="BackgroundImageFix" result="effect1_dropShadow_6_112"/>
<feBlend mode="normal" in="SourceGraphic" in2="effect1_dropShadow_6_112" result="shape"/>
</filter>
</defs>
</svg>
