<svg width="240" height="190" viewBox="0 0 240 190" fill="none" xmlns="http://www.w3.org/2000/svg">
<g filter="url(#filter0_d_6_121)">
<path d="M132.5 88H107.5C103.358 88 100 84.6425 100 80.5V55.5C100 51.3575 103.358 48 107.5 48H132.5C136.642 48 140 51.3575 140 55.5V80.5C140 84.6425 136.642 88 132.5 88Z" fill="white"/>
</g>
<path d="M128.807 65.6905C128.418 65.634 128.046 65.4905 127.721 65.2706C127.395 65.0507 127.123 64.7602 126.925 64.4206C126.727 64.081 126.608 63.7011 126.577 63.3092C126.546 62.9173 126.604 62.5236 126.747 62.1572C126.837 61.9177 126.851 61.6558 126.785 61.4083C126.719 61.1609 126.578 60.9402 126.38 60.7772C125.508 60.045 124.515 59.4698 123.447 59.0772C123.203 58.9868 122.938 58.9755 122.687 59.0449C122.437 59.1143 122.215 59.261 122.053 59.4639C121.81 59.7756 121.498 60.0278 121.142 60.2012C120.786 60.3746 120.396 60.4647 120 60.4647C119.604 60.4647 119.214 60.3746 118.858 60.2012C118.502 60.0278 118.19 59.7756 117.947 59.4639C117.785 59.261 117.563 59.1143 117.313 59.0449C117.062 58.9755 116.797 58.9868 116.553 59.0772C115.566 59.4396 114.644 59.9572 113.82 60.6105C113.612 60.7749 113.463 61.0014 113.393 61.257C113.324 61.5125 113.338 61.7836 113.433 62.0305C113.587 62.4066 113.651 62.8135 113.619 63.2185C113.587 63.6236 113.461 64.0155 113.25 64.363C113.039 64.7104 112.75 65.0036 112.406 65.2191C112.061 65.4346 111.671 65.5664 111.267 65.6039C111.004 65.6319 110.757 65.7436 110.563 65.9224C110.368 66.1013 110.237 66.3378 110.187 66.5972C110.063 67.2117 110 67.837 110 68.4639C109.999 68.9887 110.041 69.5127 110.127 70.0305C110.169 70.2982 110.299 70.5445 110.495 70.7313C110.691 70.9181 110.944 71.035 111.213 71.0639C111.627 71.1027 112.025 71.2399 112.374 71.4642C112.724 71.6884 113.015 71.9932 113.222 72.3528C113.43 72.7125 113.548 73.1167 113.568 73.5315C113.587 73.9463 113.507 74.3598 113.333 74.7372C113.22 74.9827 113.192 75.259 113.253 75.5223C113.315 75.7856 113.463 76.0208 113.673 76.1905C114.54 76.9094 115.523 77.4753 116.58 77.8638C116.715 77.9107 116.857 77.9354 117 77.9372C117.196 77.9368 117.389 77.8893 117.563 77.7988C117.737 77.7084 117.887 77.5775 118 77.4172C118.238 77.071 118.556 76.788 118.928 76.5928C119.3 76.3977 119.713 76.2962 120.133 76.2972C120.54 76.2977 120.941 76.3932 121.305 76.5761C121.668 76.7589 121.984 77.0241 122.227 77.3505C122.388 77.5677 122.617 77.7253 122.877 77.7988C123.138 77.8724 123.415 77.8577 123.667 77.7572C124.633 77.3682 125.533 76.8306 126.333 76.1638C126.534 75.9976 126.678 75.7719 126.742 75.5191C126.807 75.2663 126.79 74.9996 126.693 74.7572C126.537 74.386 126.468 73.9834 126.494 73.5812C126.519 73.1791 126.638 72.7883 126.84 72.4398C127.042 72.0914 127.323 71.7947 127.66 71.5733C127.996 71.3518 128.38 71.2117 128.78 71.1639C129.039 71.128 129.281 71.0104 129.469 70.8282C129.657 70.646 129.782 70.4087 129.827 70.1505C129.934 69.5945 129.992 69.0301 130 68.4639C130 67.8666 129.944 67.2707 129.833 66.6839C129.788 66.4314 129.665 66.1995 129.481 66.0212C129.296 65.8429 129.06 65.7272 128.807 65.6905ZM123.333 68.4639C123.333 69.1231 123.138 69.7676 122.772 70.3158C122.405 70.8639 121.885 71.2912 121.276 71.5434C120.667 71.7957 119.996 71.8618 119.35 71.7331C118.703 71.6045 118.109 71.287 117.643 70.8209C117.177 70.3547 116.859 69.7608 116.731 69.1142C116.602 68.4676 116.668 67.7973 116.92 67.1882C117.173 66.5792 117.6 66.0586 118.148 65.6923C118.696 65.326 119.341 65.1305 120 65.1305C120.884 65.1305 121.732 65.4817 122.357 66.1068C122.982 66.732 123.333 67.5798 123.333 68.4639Z" fill="#051F61"/>
<defs>
<filter id="filter0_d_6_121" x="0" y="-50" width="240" height="240" filterUnits="userSpaceOnUse" color-interpolation-filters="sRGB">
<feFlood flood-opacity="0" result="BackgroundImageFix"/>
<feColorMatrix in="SourceAlpha" type="matrix" values="0 0 0 0 0 0 0 0 0 0 0 0 0 0 0 0 0 0 127 0" result="hardAlpha"/>
<feOffset dy="2"/>
<feGaussianBlur stdDeviation="50"/>
<feComposite in2="hardAlpha" operator="out"/>
<feColorMatrix type="matrix" values="0 0 0 0 0 0 0 0 0 0 0 0 0 0 0 0 0 0 0.1 0"/>
<feBlend mode="normal" in2="BackgroundImageFix" result="effect1_dropShadow_6_121"/>
<feBlend mode="normal" in="SourceGraphic" in2="effect1_dropShadow_6_121" result="shape"/>
</filter>
</defs>
</svg>
